<svg width="138" height="38" viewBox="0 0 138 38" fill="none" xmlns="http://www.w3.org/2000/svg">
<g clip-path="url(#clip0_1_82)">
<path d="M31.0132 0.0568008C37.6377 0.421391 49.0021 -2.0454 50.978 6.79606C51.9218 11.0183 50.3651 15.1261 46.647 17.381C46.3287 17.5739 45.8415 17.7502 45.5708 17.9425C45.5255 17.9744 45.4659 17.9932 45.4868 18.0617C48.719 22.9317 51.3695 28.2451 56.4233 31.5422C61.3404 34.7506 67.9714 35.3451 73.728 34.7795C76.2785 34.5289 78.7369 33.8042 81.1284 32.9308L82.1499 32.549L82.2993 32.6759C82.3797 33.1447 83.2668 34.728 83.2192 35.0754C83.1946 35.2513 82.8646 35.365 82.7075 35.4416C78.893 37.3036 73.0864 38.1156 68.8589 37.9875C59.6498 37.7076 52.697 34.5741 47.4058 27.0265C45.5031 24.3114 43.8464 21.4182 41.9536 18.6955H33.8325V27.3625C33.8319 27.4092 33.6701 27.6196 33.5854 27.6056C32.763 27.5638 31.8837 27.6639 31.0688 27.6086C30.8599 27.5944 30.683 27.6167 30.6655 27.3586L30.6577 0.464027C30.6801 0.136988 30.6672 0.0856017 31.0132 0.0568008ZM84.7729 0.0568008C88.4815 0.183402 92.2933 -0.102402 95.9897 0.0568008C99.2508 0.197561 102.487 1.42096 103.479 4.78629C104.188 7.19172 103.735 9.98759 102.003 11.8507C101.721 12.1548 101.382 12.366 101.104 12.6408C101.069 12.675 101.006 12.7188 101.046 12.7726C101.073 12.8072 101.719 13.0243 101.849 13.09C105.474 14.9189 106.783 18.2977 105.667 22.174C104.631 25.7746 101.711 27.4454 98.0679 27.6095C93.6727 27.8078 89.1288 27.4535 84.7183 27.6105C84.47 27.636 84.359 27.4218 84.3628 27.2023L84.3901 0.273598C84.4432 0.110158 84.6084 0.0514568 84.7729 0.0568008ZM123.329 0.0558243C123.991 -0.000132003 125.477 -0.01662 126.122 0.0577774C126.254 0.0729883 126.369 0.107461 126.446 0.22477L137.994 27.3332H137.993C138.009 27.3978 137.995 27.4936 137.948 27.5392C137.884 27.6 137.75 27.601 137.663 27.6086C137.061 27.6591 135.728 27.6755 135.143 27.6076C134.973 27.5874 134.857 27.5295 134.778 27.3732L124.792 3.82438L124.672 3.69938L114.578 27.4406C114.478 27.5836 114.362 27.5949 114.202 27.6095C113.604 27.6633 112.27 27.6727 111.682 27.6076C111.579 27.5962 111.482 27.5775 111.407 27.4982L123.099 0.0997696C123.171 0.0590711 123.249 0.0623093 123.329 0.0558243ZM11.9263 0.0558243C12.5758 -0.00230088 14.0846 -0.0164936 14.7192 0.0568008C14.8893 0.0769016 15.0067 0.134749 15.0854 0.291176L26.6021 27.3195C26.6124 27.3874 26.5926 27.491 26.5444 27.5382C26.482 27.599 26.3451 27.6005 26.2593 27.6076C25.658 27.6586 24.3258 27.674 23.7407 27.6066C23.6078 27.5914 23.4931 27.557 23.4165 27.4396C20.0782 19.7767 16.98 12.0059 13.6226 4.35172C13.5274 4.13548 13.4446 3.84457 13.269 3.6984C13.2012 3.9705 13.0773 4.25336 12.9663 4.51188C9.70249 12.1263 6.46787 19.7528 3.21826 27.3732C3.13951 27.5302 3.02214 27.588 2.85205 27.6076C2.2643 27.676 0.939139 27.6585 0.333496 27.6086C0.0977838 27.5895 -0.0488502 27.5692 0.0151367 27.2931C0.0982829 26.9318 0.449082 26.2545 0.609863 25.8693C4.08263 17.5626 7.57353 9.21587 11.2202 0.983559C11.3935 0.592465 11.4634 0.0979304 11.9263 0.0558243ZM77.3364 0.0597305C77.4807 0.0836222 77.5586 0.228006 77.5806 0.360512C77.6533 0.801634 77.6307 2.21913 77.5864 2.69645C77.57 2.87134 77.504 3.10153 77.2827 3.10172H60.9028V12.1213H74.6577C74.7625 12.1218 74.8421 12.3698 74.8521 12.4709C74.9018 12.9648 74.916 14.3387 74.8521 14.8136C74.8399 14.9023 74.7266 15.1095 74.6577 15.1095H60.9038V24.5636H77.2827C77.5042 24.5636 77.57 24.794 77.5864 24.9689C77.6307 25.4467 77.6533 26.8637 77.5806 27.3048C77.5586 27.4373 77.4815 27.5821 77.3374 27.6056L58.1392 27.6095C57.9707 27.609 57.7745 27.5653 57.7827 27.3654L57.813 0.167152L57.9478 0.083168L77.3364 0.0597305ZM87.5376 14.7297V24.5636L97.2476 24.5666C100.568 24.4742 102.982 22.5941 102.741 19.1037C102.493 15.5335 99.2125 14.8484 96.2085 14.7267L87.5376 14.7297ZM33.8325 15.7619C36.1896 15.6815 38.6198 15.869 40.9692 15.7609C45.3678 15.5582 48.2369 12.9997 47.9448 8.45133C47.714 4.85548 44.7958 3.37561 41.5161 3.10172H33.8325V15.7619ZM87.5376 3.10172V11.7951L95.4429 11.797C98.5676 11.6449 100.628 10.2683 100.502 6.92985C100.388 3.89638 98.4731 3.41383 95.8257 3.09977L87.5376 3.10172Z" fill="#440376"/>
<path d="M13.2964 15.1631C13.7071 16.4914 14.5379 17.4742 15.9487 17.7725C15.6064 18.0424 15.1113 18.135 14.728 18.3789C13.9465 18.8755 13.6081 19.6623 13.2964 20.4893C13.1586 20.1432 13.0397 19.7843 12.8599 19.4551C12.4316 18.6721 11.9615 18.3993 11.1724 18.0342C11.0734 17.9883 10.7206 17.898 10.6987 17.8799C10.619 17.8028 10.7199 17.7848 10.7681 17.7588C11.0863 17.5855 11.5149 17.4876 11.8638 17.2725C12.5515 16.8483 12.9103 16.1959 13.1841 15.4756L13.2964 15.1631ZM124.699 14.7285C125.101 16.0308 125.628 16.6422 126.86 17.2002C126.943 17.2376 127.279 17.3213 127.296 17.3379C127.389 17.4324 127.262 17.43 127.219 17.4512C126.874 17.625 126.477 17.7333 126.131 17.9463C125.349 18.4283 124.974 19.2061 124.699 20.0547C124.387 19.2277 124.048 18.441 123.267 17.9443C122.884 17.7005 122.389 17.6079 122.046 17.3379C123.463 17.0401 124.281 16.0554 124.699 14.7285Z" fill="#440376"/>
</g>
<defs>
<clipPath id="clip0_1_82">
<rect width="138" height="38" fill="white"/>
</clipPath>
</defs>
</svg>
